<svg width="88" height="88" viewBox="0 0 88 88" fill="none" xmlns="http://www.w3.org/2000/svg">
<line x1="60" y1="76" x2="8" y2="76" stroke="#333333" stroke-width="8"/>
<path d="M60 44L28 44" stroke="#333333" stroke-width="8"/>
<line x1="80" y1="12" x2="16" y2="12" stroke="#333333" stroke-width="8"/>
<line x1="12" y1="8" x2="12" y2="28" stroke="#333333" stroke-width="8"/>
<path d="M28 40C21.3726 40 16 34.6274 16 28H8C8 39.0457 16.9543 48 28 48V40Z" fill="#333333"/>
<path d="M60 48C66.6274 48 72 53.3726 72 60L80 60C80 48.9543 71.0457 40 60 40L60 48Z" fill="#333333"/>
<path d="M72 60C72 66.6274 66.6274 72 60 72L60 80C71.0457 80 80 71.0457 80 60L72 60Z" fill="#333333"/>
</svg>
