<?xml version="1.0" encoding="utf-8"?>
<!-- Uploaded to SVGRepo https://www.svgrepo.com -->
<svg version="1.1" id="Layer_1" xmlns="http://www.w3.org/2000/svg" xmlns:xlink="http://www.w3.org/1999/xlink" x="0px" y="0px"
	 width="256px" height="157px" viewBox="0 0 256 157" enable-background="new 0 0 256 157" xml:space="preserve">
<path d="M253.823,41.499l-0.325,0.734c-2.41,5.503-8.319,9.204-14.332,9.204h-16.73v3.936c0,19.682-8.442,43.562-31.479,50.726
	l-3.909,41.513c2.862,1.12,4.892,3.898,4.892,7.156h-11.96l-4.781-51.275l-39-6.766c-10.755,13.121-27.175,23.474-44.585,26.549
	l-3.695,24.37c2.811,1.144,4.795,3.899,4.795,7.121H80.756l0.001-44.671c10.414-6.433,18.847-17.179,20.897-29.737
	c0,0-43.871,42.034-56.708,49.933c-5.012,3.084-10.609,4.676-16.121,4.676c-6.622,0-13.123-2.296-18.348-7.06
	c-9.654-8.802-11.272-23.402-3.78-34.105l0.722-1.035c5.007,5.223,11.765,7.918,18.623,7.918c4.441,0,8.925-1.131,13.003-3.438
	c12.878-7.285,33.765-21.585,41.987-26.531c5.561-3.345,13.409-6.095,19.728-7.581c15.761-3.706,67.877-8.57,67.877-8.57
	l53.797-52.336v16.513c-0.005,0-0.01-0.001-0.013-0.001c-0.027,0,0.013,0.012,0.013,0.012v-0.011
	c0.079,0.006,0.411,0.059,1.616,0.298c4.89,0.973,9.251,3.723,12.227,7.723l5.686,7.642l10.742,4.341
	C253.79,39.186,254.295,40.431,253.823,41.499z M151.684,105.406l-13.191-2.288c-4.227,4.708-9.067,8.946-14.301,12.598
	l13.93,39.052h11.96c0-4.146-3.284-7.517-7.392-7.673l-5.613-27.44C142.607,115.672,147.418,110.796,151.684,105.406z
	 M215.871,147.169l-6.906-44.331c-3.616,3.299-8.228,6.044-12.473,7.63l13.996,44.3h11.96
	C222.447,150.9,219.589,147.709,215.871,147.169z"/>
</svg>
