<svg width="296" height="88" viewBox="0 0 296 88" fill="none" xmlns="http://www.w3.org/2000/svg">
<line x1="252" y1="76" x2="44" y2="76" stroke="#333333" stroke-width="8"/>
<line x1="252" y1="12" x2="44" y2="12" stroke="#333333" stroke-width="8"/>
<path d="M252 16C267.464 16 280 28.536 280 44L288 44C288 24.1177 271.882 8 252 8L252 16Z" fill="#333333"/>
<path d="M44 72C28.536 72 16 59.464 16 44L8 44C8 63.8823 24.1177 80 44 80L44 72Z" fill="#333333"/>
<path d="M16 44C16 28.536 28.536 16 44 16L44 8C24.1177 8 8 24.1178 8 44L16 44Z" fill="#333333"/>
<path d="M280 44C280 59.464 267.464 72 252 72L252 80C271.882 80 288 63.8822 288 44L280 44Z" fill="#333333"/>
</svg>
