<svg width="296" height="88" viewBox="0 0 296 88" fill="none" xmlns="http://www.w3.org/2000/svg">
<path d="M268 44L16 44" stroke="#333333" stroke-width="8"/>
<line x1="268" y1="12" x2="16" y2="12" stroke="#333333" stroke-width="8"/>
<line x1="268" y1="76" x2="16" y2="76" stroke="#333333" stroke-width="8"/>
<path d="M268 16C274.627 16 280 21.3726 280 28L288 28C288 16.9543 279.046 8 268 8L268 16Z" fill="#333333"/>
<path d="M268 48C274.627 48 280 53.3726 280 60L288 60C288 48.9543 279.046 40 268 40L268 48Z" fill="#333333"/>
<path d="M280 28C280 34.6274 274.627 40 268 40L268 48C279.046 48 288 39.0457 288 28L280 28Z" fill="#333333"/>
<path d="M280 60C280 66.6274 274.627 72 268 72L268 80C279.046 80 288 71.0457 288 60L280 60Z" fill="#333333"/>
</svg>
