<svg width="296" height="88" viewBox="0 0 296 88" fill="none" xmlns="http://www.w3.org/2000/svg">
<path d="M268 44L28 44" stroke="#333333" stroke-width="8"/>
<line x1="268" y1="12" x2="28" y2="12" stroke="#333333" stroke-width="8"/>
<line x1="268" y1="76" x2="28" y2="76" stroke="#333333" stroke-width="8"/>
<line x1="12" y1="60" x2="12" y2="28" stroke="#333333" stroke-width="8"/>
<path d="M268 48C274.627 48 280 53.3726 280 60L288 60C288 48.9543 279.046 40 268 40L268 48Z" fill="#333333"/>
<path d="M28 72C21.3726 72 16 66.6274 16 60L8 60C8 71.0457 16.9543 80 28 80L28 72Z" fill="#333333"/>
<path d="M280 60C280 66.6274 274.627 72 268 72L268 80C279.046 80 288 71.0457 288 60L280 60Z" fill="#333333"/>
<path d="M16 60C16 53.3726 21.3726 48 28 48L28 40C16.9543 40 8 48.9543 8 60L16 60Z" fill="#333333"/>
<path d="M16 28C16 21.3726 21.3726 16 28 16L28 8C16.9543 8 8 16.9543 8 28L16 28Z" fill="#333333"/>
</svg>
