<svg width="88" height="168" viewBox="0 0 88 168" fill="none" xmlns="http://www.w3.org/2000/svg">
<path d="M60 84H16" stroke="#F2F2F2" stroke-width="8"/>
<line x1="60" y1="12" x2="16" y2="12" stroke="#F2F2F2" stroke-width="8"/>
<line x1="60" y1="156" x2="16" y2="156" stroke="#F2F2F2" stroke-width="8"/>
<line x1="76" y1="28" x2="76" y2="68" stroke="#F2F2F2" stroke-width="8"/>
<line x1="76" y1="100" x2="76" y2="140" stroke="#F2F2F2" stroke-width="8"/>
<line x1="12" y1="8" x2="12" y2="160" stroke="#F2F2F2" stroke-width="8"/>
<path d="M72 68C72 74.6274 66.6274 80 60 80L60 88C71.0457 88 80 79.0457 80 68L72 68Z" fill="#F2F2F2"/>
<path d="M72 140C72 146.627 66.6274 152 60 152L60 160C71.0457 160 80 151.046 80 140L72 140Z" fill="#F2F2F2"/>
<path d="M60 88C66.6274 88 72 93.3726 72 100L80 100C80 88.9543 71.0457 80 60 80L60 88Z" fill="#F2F2F2"/>
<path d="M60 16C66.6274 16 72 21.3726 72 28L80 28C80 16.9543 71.0457 8 60 8L60 16Z" fill="#F2F2F2"/>
</svg>
