<svg width="88" height="168" viewBox="0 0 88 168" fill="none" xmlns="http://www.w3.org/2000/svg">
<line x1="40" y1="156" x2="28" y2="156" stroke="#F2F2F2" stroke-width="8"/>
<line x1="60" y1="156" x2="48" y2="156" stroke="#F2F2F2" stroke-width="8"/>
<line x1="60" y1="12" x2="28" y2="12" stroke="#F2F2F2" stroke-width="8"/>
<line x1="12" y1="28" x2="12" y2="140" stroke="#F2F2F2" stroke-width="8"/>
<line x1="76" y1="28" x2="76" y2="140" stroke="#F2F2F2" stroke-width="8"/>
<line x1="44" y1="96" x2="44" y2="168" stroke="#F2F2F2" stroke-width="8"/>
<path d="M72 140C72 146.627 66.6274 152 60 152L60 160C71.0457 160 80 151.046 80 140L72 140Z" fill="#F2F2F2"/>
<path d="M28 152C21.3726 152 16 146.627 16 140L8 140C8 151.046 16.9543 160 28 160L28 152Z" fill="#F2F2F2"/>
<path d="M16 28C16 21.3726 21.3726 16 28 16L28 8C16.9543 8 8 16.9543 8 28L16 28Z" fill="#F2F2F2"/>
<path d="M60 16C66.6274 16 72 21.3726 72 28L80 28C80 16.9543 71.0457 8 60 8L60 16Z" fill="#F2F2F2"/>
</svg>
