<svg width="88" height="168" viewBox="0 0 88 168" fill="none" xmlns="http://www.w3.org/2000/svg">
<path d="M72 124C72 139.464 59.464 152 44 152L44 160C63.8823 160 80 143.882 80 124L72 124Z" fill="#F2F2F2"/>
<path d="M40 124C40 139.464 27.464 152 12 152L12 160C31.8823 160 48 143.882 48 124L40 124Z" fill="#F2F2F2"/>
<path d="M44 160L44 80" stroke="#F2F2F2" stroke-width="8"/>
<line x1="76" y1="8" x2="76" y2="128" stroke="#F2F2F2" stroke-width="8"/>
<line x1="12" y1="8" x2="12" y2="160" stroke="#F2F2F2" stroke-width="8"/>
<line y1="-4" x2="4" y2="-4" transform="matrix(1 0 0 -1 12 152)" stroke="#F2F2F2" stroke-width="8"/>
<line y1="-4" x2="4" y2="-4" transform="matrix(1 0 0 -1 44 152)" stroke="#F2F2F2" stroke-width="8"/>
</svg>
