<svg width="204" height="168" viewBox="0 0 204 168" fill="none" xmlns="http://www.w3.org/2000/svg">
<line x1="196" y1="12" x2="24" y2="12" stroke="#F2F2F2" stroke-width="8"/>
<line x1="176" y1="156" x2="24" y2="156" stroke="#F2F2F2" stroke-width="8"/>
<line x1="8" y1="28" x2="8" y2="140" stroke="#F2F2F2" stroke-width="8"/>
<line x1="192" y1="88" x2="192" y2="140" stroke="#F2F2F2" stroke-width="8"/>
<path d="M188 140C188 146.627 182.627 152 176 152L176 160C187.046 160 196 151.046 196 140L188 140Z" fill="#F2F2F2"/>
<path d="M196 84L104 84" stroke="#F2F2F2" stroke-width="8"/>
<path d="M12 28C12 21.3726 17.3726 16 24 16L24 8C12.9543 8 4 16.9543 4 28L12 28Z" fill="#F2F2F2"/>
<path d="M24 152C17.3726 152 12 146.627 12 140L4 140C4 151.046 12.9543 160 24 160L24 152Z" fill="#F2F2F2"/>
</svg>
