<svg width="208" height="168" viewBox="0 0 208 168" fill="none" xmlns="http://www.w3.org/2000/svg">
<line x1="180" y1="156" x2="28" y2="156" stroke="#F2F2F2" stroke-width="8"/>
<line x1="180" y1="12" x2="28" y2="12" stroke="#F2F2F2" stroke-width="8"/>
<line x1="12" y1="28" x2="12" y2="140" stroke="#F2F2F2" stroke-width="8"/>
<line x1="196" y1="28" x2="196" y2="140" stroke="#F2F2F2" stroke-width="8"/>
<path d="M16 28C16 21.3726 21.3726 16 28 16L28 8C16.9543 8 8 16.9543 8 28L16 28Z" fill="#F2F2F2"/>
<path d="M180 16C186.627 16 192 21.3726 192 28L200 28C200 16.9543 191.046 8 180 8L180 16Z" fill="#F2F2F2"/>
<path d="M28 152C21.3726 152 16 146.627 16 140L8 140C8 151.046 16.9543 160 28 160L28 152Z" fill="#F2F2F2"/>
<path d="M192 140C192 146.627 186.627 152 180 152L180 160C191.046 160 200 151.046 200 140L192 140Z" fill="#F2F2F2"/>
</svg>
