<svg width="204" height="168" viewBox="0 0 204 168" fill="none" xmlns="http://www.w3.org/2000/svg">
<path d="M180 84H16" stroke="#F2F2F2" stroke-width="8"/>
<line x1="180" y1="12" x2="16" y2="12" stroke="#F2F2F2" stroke-width="8"/>
<line x1="196" y1="28" x2="196" y2="68" stroke="#F2F2F2" stroke-width="8"/>
<line x1="196" y1="100" x2="196" y2="160" stroke="#F2F2F2" stroke-width="8"/>
<line x1="12" y1="8" x2="12" y2="160" stroke="#F2F2F2" stroke-width="8"/>
<path d="M192 68C192 74.6274 186.627 80 180 80L180 88C191.046 88 200 79.0457 200 68L192 68Z" fill="#F2F2F2"/>
<path d="M180 88C186.627 88 192 93.3726 192 100L200 100C200 88.9543 191.046 80 180 80L180 88Z" fill="#F2F2F2"/>
<path d="M180 16C186.627 16 192 21.3726 192 28L200 28C200 16.9543 191.046 8 180 8L180 16Z" fill="#F2F2F2"/>
</svg>
