<svg width="204" height="168" viewBox="0 0 204 168" fill="none" xmlns="http://www.w3.org/2000/svg">
<path d="M180 84H28" stroke="#F2F2F2" stroke-width="8"/>
<line x1="196" y1="8" x2="196" y2="68" stroke="#F2F2F2" stroke-width="8"/>
<line x1="196" y1="100" x2="196" y2="160" stroke="#F2F2F2" stroke-width="8"/>
<line x1="12" y1="8" x2="12" y2="68" stroke="#F2F2F2" stroke-width="8"/>
<line x1="12" y1="100" x2="12" y2="160" stroke="#F2F2F2" stroke-width="8"/>
<path d="M192 68C192 74.6274 186.627 80 180 80L180 88C191.046 88 200 79.0457 200 68L192 68Z" fill="#F2F2F2"/>
<path d="M16 68C16 74.6274 21.3726 80 28 80L28 88C16.9543 88 8 79.0457 8 68L16 68Z" fill="#F2F2F2"/>
<path d="M180 88C186.627 88 192 93.3726 192 100L200 100C200 88.9543 191.046 80 180 80L180 88Z" fill="#F2F2F2"/>
<path d="M28 88C21.3726 88 16 93.3726 16 100L8 100C8 88.9543 16.9543 80 28 80L28 88Z" fill="#F2F2F2"/>
</svg>
