<svg width="204" height="88" viewBox="0 0 204 88" fill="none" xmlns="http://www.w3.org/2000/svg">
<line x1="180" y1="12" x2="16" y2="12" stroke="#F2F2F2" stroke-width="8"/>
<line x1="180" y1="44" x2="120" y2="44" stroke="#F2F2F2" stroke-width="8"/>
<line x1="104" y1="60" x2="104" y2="64" stroke="#F2F2F2" stroke-width="8"/>
<path d="M108 76L100 76" stroke="#F2F2F2" stroke-width="8"/>
<path d="M192 28C192 34.6274 186.627 40 180 40L180 48C191.046 48 200 39.0457 200 28L192 28Z" fill="#F2F2F2"/>
<path d="M180 16C186.627 16 192 21.3726 192 28L200 28C200 16.9543 191.046 8 180 8L180 16Z" fill="#F2F2F2"/>
<path d="M120 48C113.373 48 108 53.3726 108 60L100 60C100 48.9543 108.954 40 120 40L120 48Z" fill="#F2F2F2"/>
</svg>
