<svg width="208" height="88" viewBox="0 0 208 88" fill="none" xmlns="http://www.w3.org/2000/svg">
<line x1="180" y1="76" x2="28" y2="76" stroke="#F2F2F2" stroke-width="8"/>
<line x1="180" y1="12" x2="28" y2="12" stroke="#F2F2F2" stroke-width="8"/>
<line x1="12" y1="28" x2="12" y2="60" stroke="#F2F2F2" stroke-width="8"/>
<line x1="196" y1="28" x2="196" y2="60" stroke="#F2F2F2" stroke-width="8"/>
<path d="M16 28C16 21.3726 21.3726 16 28 16L28 8C16.9543 8 8 16.9543 8 28L16 28Z" fill="#F2F2F2"/>
<path d="M180 16C186.627 16 192 21.3726 192 28L200 28C200 16.9543 191.046 8 180 8L180 16Z" fill="#F2F2F2"/>
<path d="M28 72C21.3726 72 16 66.6274 16 60L8 60C8 71.0457 16.9543 80 28 80L28 72Z" fill="#F2F2F2"/>
<path d="M192 60C192 66.6274 186.627 72 180 72L180 80C191.046 80 200 71.0457 200 60L192 60Z" fill="#F2F2F2"/>
</svg>
