<svg width="204" height="88" viewBox="0 0 204 88" fill="none" xmlns="http://www.w3.org/2000/svg">
<path d="M180 44L28 44" stroke="#F2F2F2" stroke-width="8"/>
<line x1="196" y1="8" x2="196" y2="28" stroke="#F2F2F2" stroke-width="8"/>
<line x1="196" y1="60" x2="196" y2="80" stroke="#F2F2F2" stroke-width="8"/>
<line x1="12" y1="8" x2="12" y2="28" stroke="#F2F2F2" stroke-width="8"/>
<line x1="12" y1="60" x2="12" y2="80" stroke="#F2F2F2" stroke-width="8"/>
<path d="M192 28C192 34.6274 186.627 40 180 40L180 48C191.046 48 200 39.0457 200 28L192 28Z" fill="#F2F2F2"/>
<path d="M16 28C16 34.6274 21.3726 40 28 40L28 48C16.9543 48 8 39.0457 8 28L16 28Z" fill="#F2F2F2"/>
<path d="M180 48C186.627 48 192 53.3726 192 60L200 60C200 48.9543 191.046 40 180 40L180 48Z" fill="#F2F2F2"/>
<path d="M28 48C21.3726 48 16 53.3726 16 60L8 60C8 48.9543 16.9543 40 28 40L28 48Z" fill="#F2F2F2"/>
</svg>
