<svg width="296" height="184" viewBox="0 0 296 184" fill="none" xmlns="http://www.w3.org/2000/svg">
<line x1="252" y1="172" x2="44" y2="172" stroke="#333333" stroke-width="8"/>
<line x1="252" y1="12" x2="44" y2="12" stroke="#333333" stroke-width="8"/>
<line x1="12" y1="44" x2="12" y2="140" stroke="#333333" stroke-width="8"/>
<line x1="284" y1="44" x2="284" y2="140" stroke="#333333" stroke-width="8"/>
<path d="M252 16C267.464 16 280 28.536 280 44L288 44C288 24.1177 271.882 8 252 8L252 16Z" fill="#333333"/>
<path d="M44 168C28.536 168 16 155.464 16 140L8 140C8 159.882 24.1177 176 44 176L44 168Z" fill="#333333"/>
<path d="M16 44C16 28.536 28.536 16 44 16L44 8C24.1177 8 8 24.1178 8 44L16 44Z" fill="#333333"/>
<path d="M280 140C280 155.464 267.464 168 252 168L252 176C271.882 176 288 159.882 288 140L280 140Z" fill="#333333"/>
</svg>
