<svg width="296" height="184" viewBox="0 0 296 184" fill="none" xmlns="http://www.w3.org/2000/svg">
<line x1="288" y1="172" x2="8" y2="172" stroke="#333333" stroke-width="8"/>
<path d="M268 92L28 92" stroke="#333333" stroke-width="8"/>
<line x1="268" y1="12" x2="12" y2="12" stroke="#333333" stroke-width="8"/>
<line x1="12" y1="108" x2="12" y2="176" stroke="#333333" stroke-width="8"/>
<line x1="284" y1="28" x2="284" y2="76" stroke="#333333" stroke-width="8"/>
<path d="M16 108C16 101.373 21.3726 96 28 96L28 88C16.9543 88 8 96.9543 8 108L16 108Z" fill="#333333"/>
<path d="M280 76C280 82.6274 274.627 88 268 88L268 96C279.046 96 288 87.0457 288 76L280 76Z" fill="#333333"/>
<path d="M268 16C274.627 16 280 21.3726 280 28L288 28C288 16.9543 279.046 8 268 8L268 16Z" fill="#333333"/>
</svg>
