<svg width="296" height="184" viewBox="0 0 296 184" fill="none" xmlns="http://www.w3.org/2000/svg">
<line x1="268" y1="172" x2="8" y2="172" stroke="#333333" stroke-width="8"/>
<path d="M268 92L28 92" stroke="#333333" stroke-width="8"/>
<line x1="288" y1="12" x2="16" y2="12" stroke="#333333" stroke-width="8"/>
<line x1="12" y1="8" x2="12" y2="76" stroke="#333333" stroke-width="8"/>
<line x1="284" y1="108" x2="284" y2="156" stroke="#333333" stroke-width="8"/>
<path d="M28 88C21.3726 88 16 82.6274 16 76H8C8 87.0457 16.9543 96 28 96V88Z" fill="#333333"/>
<path d="M268 96C274.627 96 280 101.373 280 108L288 108C288 96.9543 279.046 88 268 88L268 96Z" fill="#333333"/>
<path d="M280 156C280 162.627 274.627 168 268 168L268 176C279.046 176 288 167.046 288 156L280 156Z" fill="#333333"/>
</svg>
