<svg width="296" height="184" viewBox="0 0 296 184" fill="none" xmlns="http://www.w3.org/2000/svg">
<path d="M268 92H28" stroke="#333333" stroke-width="8"/>
<line x1="268" y1="12" x2="28" y2="12" stroke="#333333" stroke-width="8"/>
<line x1="268" y1="172" x2="28" y2="172" stroke="#333333" stroke-width="8"/>
<line x1="284" y1="108" x2="284" y2="156" stroke="#333333" stroke-width="8"/>
<line x1="12" y1="156" x2="12" y2="28" stroke="#333333" stroke-width="8"/>
<path d="M268 96C274.627 96 280 101.373 280 108L288 108C288 96.9543 279.046 88 268 88L268 96Z" fill="#333333"/>
<path d="M28 168C21.3726 168 16 162.627 16 156L8 156C8 167.046 16.9543 176 28 176L28 168Z" fill="#333333"/>
<path d="M280 156C280 162.627 274.627 168 268 168L268 176C279.046 176 288 167.046 288 156L280 156Z" fill="#333333"/>
<path d="M16 108C16 101.373 21.3726 96 28 96L28 88C16.9543 88 8 96.9543 8 108L16 108Z" fill="#333333"/>
<path d="M16 28C16 21.3726 21.3726 16 28 16L28 8C16.9543 8 8 16.9543 8 28L16 28Z" fill="#333333"/>
</svg>
