<svg width="296" height="184" viewBox="0 0 296 184" fill="none" xmlns="http://www.w3.org/2000/svg">
<path d="M268 92H28" stroke="#333333" stroke-width="8"/>
<line x1="268" y1="12" x2="28" y2="12" stroke="#333333" stroke-width="8"/>
<line x1="268" y1="172" x2="28" y2="172" stroke="#333333" stroke-width="8"/>
<line x1="284" y1="28" x2="284" y2="156" stroke="#333333" stroke-width="8"/>
<line x1="12" y1="76" x2="12" y2="28" stroke="#333333" stroke-width="8"/>
<path d="M268 16C274.627 16 280 21.3726 280 28L288 28C288 16.9543 279.046 8 268 8L268 16Z" fill="#333333"/>
<path d="M28 88C21.3726 88 16 82.6274 16 76L8 76C8 87.0457 16.9543 96 28 96L28 88Z" fill="#333333"/>
<path d="M280 76C280 82.6274 274.627 88 268 88L268 96C279.046 96 288 87.0457 288 76L280 76Z" fill="#333333"/>
<path d="M280 156C280 162.627 274.627 168 268 168L268 176C279.046 176 288 167.046 288 156L280 156Z" fill="#333333"/>
<path d="M16 28C16 21.3726 21.3726 16 28 16L28 8C16.9543 8 8 16.9543 8 28L16 28Z" fill="#333333"/>
</svg>
