<svg width="88" height="88" viewBox="0 0 88 88" fill="none" xmlns="http://www.w3.org/2000/svg">
<line x1="60" y1="12" x2="16" y2="12" stroke="#F2F2F2" stroke-width="8"/>
<line x1="44" y1="60" x2="44" y2="64" stroke="#F2F2F2" stroke-width="8"/>
<path d="M48 76L40 76" stroke="#F2F2F2" stroke-width="8"/>
<path d="M72 28C72 34.6274 66.6274 40 60 40L60 48C71.0457 48 80 39.0457 80 28L72 28Z" fill="#F2F2F2"/>
<path d="M60 16C66.6274 16 72 21.3726 72 28L80 28C80 16.9543 71.0457 8 60 8L60 16Z" fill="#F2F2F2"/>
<path d="M60 48C53.3726 48 48 53.3726 48 60L40 60C40 48.9543 48.9543 40 60 40L60 48Z" fill="#F2F2F2"/>
</svg>
