<svg width="88" height="88" viewBox="0 0 88 88" fill="none" xmlns="http://www.w3.org/2000/svg">
<path d="M44 80L44 28" stroke="#F2F2F2" stroke-width="8"/>
<line x1="76" y1="28" x2="76" y2="80" stroke="#F2F2F2" stroke-width="8"/>
<line x1="12" y1="28" x2="12" y2="80" stroke="#F2F2F2" stroke-width="8"/>
<path d="M16 28C16 21.3726 21.3726 16 28 16L28 8C16.9543 8 8 16.9543 8 28L16 28Z" fill="#F2F2F2"/>
<path d="M48 28C48 21.3726 53.3726 16 60 16L60 8C48.9543 8 40 16.9543 40 28L48 28Z" fill="#F2F2F2"/>
<path d="M28 16C34.6274 16 40 21.3726 40 28L48 28C48 16.9543 39.0457 8 28 8L28 16Z" fill="#F2F2F2"/>
<path d="M60 16C66.6274 16 72 21.3726 72 28L80 28C80 16.9543 71.0457 8 60 8L60 16Z" fill="#F2F2F2"/>
</svg>
