<svg width="88" height="88" viewBox="0 0 88 88" fill="none" xmlns="http://www.w3.org/2000/svg">
<line x1="60" y1="76" x2="8" y2="76" stroke="#F2F2F2" stroke-width="8"/>
<path d="M60 44L28 44" stroke="#F2F2F2" stroke-width="8"/>
<line x1="76" y1="12" x2="28" y2="12" stroke="#F2F2F2" stroke-width="8"/>
<line y1="-4" x2="4" y2="-4" transform="matrix(1.74846e-07 1 1 -1.09278e-08 16 26)" stroke="#F2F2F2" stroke-width="8"/>
<line y1="-4" x2="4" y2="-4" transform="matrix(8.74228e-08 1 1 -2.18557e-08 80 58)" stroke="#F2F2F2" stroke-width="8"/>
<path d="M16 28C16 21.3726 21.3726 16 28 16L28 8C16.9543 8 8 16.9543 8 28L16 28Z" fill="#F2F2F2"/>
<path d="M28 40C21.3726 40 16 34.6274 16 28L8 28C8 39.0457 16.9543 48 28 48L28 40Z" fill="#F2F2F2"/>
<path d="M72 60C72 66.6274 66.6274 72 60 72L60 80C71.0457 80 80 71.0457 80 60L72 60Z" fill="#F2F2F2"/>
<path d="M60 48C66.6274 48 72 53.3726 72 60L80 60C80 48.9543 71.0457 40 60 40L60 48Z" fill="#F2F2F2"/>
</svg>
