<svg width="88" height="184" viewBox="0 0 88 184" fill="none" xmlns="http://www.w3.org/2000/svg">
<line x1="12" y1="44" x2="12" y2="140" stroke="#333333" stroke-width="8"/>
<line x1="76" y1="44" x2="76" y2="140" stroke="#333333" stroke-width="8"/>
<path d="M44 16C59.464 16 72 28.536 72 44L80 44C80 24.1177 63.8823 8 44 8L44 16Z" fill="#333333"/>
<path d="M44 168C28.536 168 16 155.464 16 140L8 140C8 159.882 24.1177 176 44 176L44 168Z" fill="#333333"/>
<path d="M16 44C16 28.536 28.536 16 44 16L44 8C24.1177 8 8 24.1178 8 44L16 44Z" fill="#333333"/>
<path d="M72 140C72 155.464 59.464 168 44 168L44 176C63.8823 176 80 159.882 80 140L72 140Z" fill="#333333"/>
</svg>
