<svg width="88" height="184" viewBox="0 0 88 184" fill="none" xmlns="http://www.w3.org/2000/svg">
<line x1="80" y1="172" x2="8" y2="172" stroke="#333333" stroke-width="8"/>
<path d="M60 92L28 92" stroke="#333333" stroke-width="8"/>
<line x1="60" y1="12" x2="12" y2="12" stroke="#333333" stroke-width="8"/>
<line x1="12" y1="108" x2="12" y2="176" stroke="#333333" stroke-width="8"/>
<line x1="76" y1="28" x2="76" y2="76" stroke="#333333" stroke-width="8"/>
<path d="M16 108C16 101.373 21.3726 96 28 96L28 88C16.9543 88 8 96.9543 8 108L16 108Z" fill="#333333"/>
<path d="M72 76C72 82.6274 66.6274 88 60 88L60 96C71.0457 96 80 87.0457 80 76L72 76Z" fill="#333333"/>
<path d="M60 16C66.6274 16 72 21.3726 72 28L80 28C80 16.9543 71.0457 8 60 8L60 16Z" fill="#333333"/>
</svg>
