<svg width="88" height="184" viewBox="0 0 88 184" fill="none" xmlns="http://www.w3.org/2000/svg">
<path d="M60 92H28" stroke="#333333" stroke-width="8"/>
<line x1="60" y1="12" x2="28" y2="12" stroke="#333333" stroke-width="8"/>
<line x1="60" y1="172" x2="28" y2="172" stroke="#333333" stroke-width="8"/>
<line x1="76" y1="108" x2="76" y2="156" stroke="#333333" stroke-width="8"/>
<line x1="12" y1="156" x2="12" y2="28" stroke="#333333" stroke-width="8"/>
<path d="M60 96C66.6274 96 72 101.373 72 108L80 108C80 96.9543 71.0457 88 60 88L60 96Z" fill="#333333"/>
<path d="M28 168C21.3726 168 16 162.627 16 156L8 156C8 167.046 16.9543 176 28 176L28 168Z" fill="#333333"/>
<path d="M72 156C72 162.627 66.6274 168 60 168L60 176C71.0457 176 80 167.046 80 156L72 156Z" fill="#333333"/>
<path d="M16 108C16 101.373 21.3726 96 28 96L28 88C16.9543 88 8 96.9543 8 108L16 108Z" fill="#333333"/>
<path d="M16 28C16 21.3726 21.3726 16 28 16L28 8C16.9543 8 8 16.9543 8 28L16 28Z" fill="#333333"/>
</svg>
